# xmcd
#
# Track frame offsets: 
#        150
#        16850
#        31450
#        52779
#        69266
#        83935
#        110186
#        129035
#        148902
#        166221
#        179685
#        195249
#        208987
#        234067
#        251212
#        272295
#        296874
#        307491
#
# Disc length: 4356 seconds
#
# Revision: 0
# Processed by: cddbd v1.5.2PL0 Copyright (c) Steve Scherf et al.
# Submitted via: ExactAudioCopyFreeDBPlugin 1.0
#
DISCID=06110212
DTITLE=Various Artist - American Roots Music
DYEAR=1997
DGENRE=Country
TTITLE0=Tommy Castro - This soul is mine
TTITLE1=Shaver - Georgia on a fast train
TTITLE2=Popa Chubby - Heart attack and wine
TTITLE3=Ken McMahan - Forever
TTITLE4=Jimmy Title - It's in the attitude
TTITLE5=Bo Ramsey - Big Bill
TTITLE6=Jimmy Thackery - Drive to survive
TTITLE7=Tom Principato - Every minute, every hour
TTITLE8=Geo Hamilton V - Midnight at a redlight
TTITLE9=Jason and The Scorchers - Self-sabotage
TTITLE10=Amos Garrett - Just like a fish
TTITLE11=Paul Burch - Monlerey
TTITLE12=James Solberg Band - Still called the Blues
TTITLE13=Joanna Connor - Big girl Blues
TTITLE14=Eddy Shaver - Lighting a torch
TTITLE15=Dan Seals - Everything that glitters
TTITLE16=Wylie and the Wild West Show - Honeydew
TTITLE17=Coco Montoya - Seven Desires
EXTD=
EXTT0=
EXTT1=
EXTT2=
EXTT3=
EXTT4=
EXTT5=
EXTT6=
EXTT7=
EXTT8=
EXTT9=
EXTT10=
EXTT11=
EXTT12=
EXTT13=
EXTT14=
EXTT15=
EXTT16=
EXTT17=
PLAYORDER=
